<?xml version="1.0" encoding="UTF-8" standalone="no"?>
<svg
   version="1.1"
   viewBox="0 0 128 128"
   id="svg934"
   sodipodi:docname="Extension.svg"
   inkscape:version="1.1.2 (0a00cf5339, 2022-02-04)"
   xmlns:inkscape="http://www.inkscape.org/namespaces/inkscape"
   xmlns:sodipodi="http://sodipodi.sourceforge.net/DTD/sodipodi-0.dtd"
   xmlns:xlink="http://www.w3.org/1999/xlink"
   xmlns="http://www.w3.org/2000/svg"
   xmlns:svg="http://www.w3.org/2000/svg"
   xmlns:rdf="http://www.w3.org/1999/02/22-rdf-syntax-ns#"
   xmlns:cc="http://creativecommons.org/ns#"
   xmlns:dc="http://purl.org/dc/elements/1.1/">
  <defs
     id="defs938">
    <linearGradient
       inkscape:collect="always"
       id="linearGradient1280">
      <stop
         style="stop-color:#1e87f0;stop-opacity:1"
         offset="0"
         id="stop1276" />
      <stop
         style="stop-color:#28a5f5;stop-opacity:1"
         offset="1"
         id="stop1278" />
    </linearGradient>
    <linearGradient
       inkscape:collect="always"
       xlink:href="#linearGradient1280"
       id="linearGradient1282"
       x1="127.5799"
       y1="31.302656"
       x2="155.5799"
       y2="31.302656"
       gradientUnits="userSpaceOnUse" />
  </defs>
  <sodipodi:namedview
     id="namedview936"
     pagecolor="#505050"
     bordercolor="#eeeeee"
     borderopacity="1"
     inkscape:pageshadow="0"
     inkscape:pageopacity="0"
     inkscape:pagecheckerboard="0"
     showgrid="false"
     inkscape:zoom="1"
     inkscape:cx="106"
     inkscape:cy="102.5"
     inkscape:window-width="3840"
     inkscape:window-height="2131"
     inkscape:window-x="0"
     inkscape:window-y="0"
     inkscape:window-maximized="1"
     inkscape:current-layer="svg934" />
  <metadata
     id="metadata916">
    <rdf:RDF>
      <cc:Work
         rdf:about="">
        <dc:format>image/svg+xml</dc:format>
        <dc:type
           rdf:resource="http://purl.org/dc/dcmitype/StillImage" />
      </cc:Work>
    </rdf:RDF>
  </metadata>
  <rect
     width="128"
     height="128"
     fill="#4c7e3a"
     id="rect918" />
  <g
     fill="#fff"
     id="g922">
    <path
       d="m91.344 43.844-12.188-12.188c-1.4453-1.4453-4.3359-2.6562-6.4062-2.6562h-35c-2.0703 0-3.75 1.6797-3.75 3.75v62.5c0 2.0703 1.6797 3.75 3.75 3.75h52.5c2.0703 0 3.75-1.6797 3.75-3.75v-45c0-2.0703-1.2109-4.9609-2.6562-6.4062zm-17.344-9.5312c0.66406 0.23438 1.3281 0.58594 1.6016 0.85938l12.227 12.227c0.27344 0.27344 0.625 0.9375 0.85938 1.6016h-14.688v-14.688zm15 59.688h-50v-60h30v16.25c0 2.0703 1.6797 3.75 3.75 3.75h16.25v40z"
       id="path920" />
  </g>
  <g
     fill="#fff"
     id="g928">
    <path
       d="m50.653 90.476v-21.875h-7.5879v-3.0762h19.294v3.0762h-7.605v21.875h-4.1016z"
       id="path924" />
    <path
       d="m71.622 90.476-8.4595-24.951h4.4434q0.68359 2.1191 2.0508 6.3062 1.3672 4.187 2.4268 7.5024 1.0596 3.3154 1.9995 6.3574 0.32471-1.0254 6.4941-20.166h4.3579l-8.7329 24.951h-4.5801z"
       id="path926" />
  </g>
  <g
     transform="matrix(.14396 0 0 .14396 93.33 4.1827)"
     fill="#fff"
     id="g932">
    <path
       d="m163.54 118.43h-70.203v-71.08c0-12.285-9.6529-21.061-21.938-21.061h-0.87753c-12.286 0-21.061 8.3366-21.061 21.061v71.08h-72.397c-12.285 0-24.132 9.6529-24.132 21.938v0.87753c0 12.285 11.847 20.622 24.132 20.622h68.009v71.08c0 12.285 11.408 21.061 24.132 21.061h0.87753c12.286 0 23.255-8.3366 23.255-21.061v-71.08h70.203c12.285 0 21.938-9.6529 21.938-21.938v-0.87753c0-12.285-9.6529-20.622-21.938-20.622z"
       fill="#fff"
       stroke-width="4.3877"
       id="path930" />
  </g>
  <g
     id="g1238"
     transform="matrix(1.7265653,0,0,1.7265653,-149.60796,38.173807)"
     style="fill:url(#linearGradient1282);fill-opacity:1">
    <polygon
       points="13.6,7.44 19.1,4.1 13.75,1 8.17,4.45 "
       fill="#ffffff"
       id="polygon1124"
       transform="translate(127.5799,14.157656)"
       style="fill:url(#linearGradient1282);fill-opacity:1" />
    <path
       d="m 149.2499,19.587656 -5.53,3.34 6.26,3.63 v 9.52 l -8.44,4.76 -8.36,-4.75 v -7.38 l -5.6,-2.85 v 13.51 l 13.75,8.08 14.25,-8.08 v -16.14 z"
       fill="#ffffff"
       id="path1126"
       style="fill:url(#linearGradient1282);fill-opacity:1" />
  </g>
</svg>
